<?xml version="1.0" standalone="no"?>
<!DOCTYPE svg PUBLIC "-//W3C//DTD SVG 20010904//EN"
 "http://www.w3.org/TR/2001/REC-SVG-20010904/DTD/svg10.dtd">
<svg version="1.0" xmlns="http://www.w3.org/2000/svg"
 width="260.000000pt" height="260.000000pt" viewBox="0 0 260.000000 260.000000"
 preserveAspectRatio="xMidYMid meet">
<metadata>
Created by potrace 1.11, written by Peter Selinger 2001-2013
</metadata>
<g transform="translate(0.000000,260.000000) scale(0.100000,-0.100000)"
fill="#000000" stroke="none">
<path d="M446 2564 c-151 -37 -301 -157 -368 -295 -62 -128 -62 -125 -63 -779
0 -327 3 -624 6 -660 15 -135 70 -246 179 -358 36 -37 66 -65 68 -63 8 8 41
-23 35 -33 -4 -7 -1 -6 8 0 11 9 17 9 26 -1 10 -11 10 -15 0 -18 -9 -4 -9 -6
0 -6 6 -1 15 3 18 9 4 6 13 6 25 0 49 -24 56 -27 73 -24 9 1 17 -3 17 -9 0 -5
3 -7 7 -4 3 4 12 -1 20 -11 12 -16 13 -16 7 0 -4 12 -1 18 10 18 10 0 14 -6
10 -17 -5 -15 -3 -15 7 1 11 18 12 17 25 -10 8 -16 12 -20 9 -9 -4 16 1 20 26
22 25 2 30 -1 25 -15 -5 -15 -4 -14 8 1 9 12 22 17 33 13 10 -3 33 -2 51 3 28
8 32 7 30 -7 -3 -19 29 -29 44 -14 6 6 0 8 -19 4 -16 -3 -24 -1 -20 4 5 5 33
10 63 10 47 2 54 -1 50 -15 -4 -12 -2 -11 9 3 15 20 15 20 30 0 8 -10 15 -14
15 -9 0 6 5 3 11 -5 9 -13 10 -13 6 0 -2 8 -10 14 -16 12 -6 -1 -11 2 -11 7 0
15 104 8 116 -8 9 -11 12 -12 19 -1 5 9 4 11 -3 6 -7 -4 -12 -3 -12 3 0 5 27
9 62 8 50 -2 62 1 66 15 2 10 10 15 20 11 12 -4 12 -1 -3 10 -17 14 -18 18 -5
27 10 6 11 10 3 10 -8 0 -13 14 -13 36 0 21 4 33 10 29 6 -3 10 -1 10 4 0 6
-4 11 -10 11 -5 0 -10 7 -10 16 0 9 5 12 13 8 9 -6 9 -4 2 7 -16 21 -19 69 -5
69 7 0 10 -8 7 -20 -3 -11 -2 -20 2 -20 4 0 8 -6 8 -12 0 -46 71 -136 132
-167 58 -30 150 -45 163 -26 4 5 9 7 12 5 2 -3 22 -70 44 -150 38 -140 40
-145 66 -145 14 1 26 -4 26 -10 0 -5 4 -4 9 4 5 8 28 20 50 27 23 6 38 8 35 3
-3 -5 0 -9 5 -9 6 0 11 4 11 9 0 8 47 24 75 26 6 0 16 4 24 9 8 5 16 3 22 -5
7 -11 9 -11 9 2 0 18 49 32 77 22 11 -4 14 -3 9 5 -5 8 0 12 14 12 13 0 19 -4
14 -12 -4 -7 -3 -8 5 -4 6 4 9 12 6 17 -4 5 0 10 7 10 7 1 22 3 33 5 11 2 29
4 40 6 11 2 23 7 27 12 4 6 14 4 24 -5 16 -13 17 -12 11 5 -6 14 -4 17 8 12
47 -19 50 -19 30 -2 -20 17 -20 17 3 13 12 -3 22 -2 22 2 0 12 89 53 100 46 6
-4 7 1 3 12 -3 10 -3 15 2 11 4 -4 16 3 26 15 16 19 20 20 29 7 9 -12 10 -10
5 8 -4 13 -2 22 4 22 6 0 11 -4 11 -10 0 -5 5 -10 12 -10 9 0 9 3 0 12 -17 17
-15 28 4 28 8 0 12 -4 9 -10 -3 -6 1 -7 10 -4 14 6 14 8 -1 19 -13 9 -14 14
-4 20 7 4 16 2 22 -6 7 -10 8 -8 3 8 -6 21 12 63 26 63 4 0 5 -10 2 -23 -3
-12 -2 -19 2 -15 4 4 8 21 7 38 0 16 4 30 9 30 6 0 7 5 4 10 -3 6 -1 10 6 10
7 0 9 3 6 6 -3 4 -1 16 4 27 9 16 13 17 20 6 6 -9 9 -10 9 -2 0 6 -4 14 -9 17
-5 4 -2 31 8 64 9 31 17 76 16 99 0 23 3 39 7 37 10 -6 11 10 1 20 -12 11 -12
40 -1 53 6 8 8 16 4 20 -3 3 -6 0 -7 -8 0 -8 -4 -6 -9 6 -14 32 -11 45 8 39 9
-2 7 1 -5 7 -19 10 -27 25 -22 42 0 1 -4 15 -10 30 -8 21 -8 34 1 50 10 20 10
21 -7 7 -16 -14 -17 -13 -11 8 5 13 3 22 -3 22 -6 0 -11 9 -11 21 0 11 -4 29
-10 39 -5 10 -11 33 -12 51 -1 19 -7 37 -13 41 -7 5 -6 14 2 27 11 17 10 19
-2 15 -8 -4 -15 -2 -15 4 0 6 -3 18 -6 26 -4 11 -2 15 7 13 8 -2 11 -2 7 0 -4
2 -4 12 -1 21 4 15 3 15 -6 2 -6 -8 -11 -13 -12 -10 0 3 -3 14 -5 25 -3 11 -6
27 -8 35 -1 9 -6 21 -10 28 -4 7 -6 16 -2 19 3 3 -1 12 -9 20 -13 12 -30 10
-132 -17 -198 -52 -178 -39 -178 -123 -1 -80 -14 -114 -67 -166 -72 -73 -192
-95 -275 -52 -53 27 -106 78 -97 93 4 6 3 8 -3 5 -5 -3 -17 9 -26 28 -9 19
-20 35 -24 35 -29 -2 -288 -79 -290 -86 -2 -5 14 -73 35 -151 l38 -141 -32
-15 c-76 -37 -134 -111 -149 -190 -8 -44 -25 -49 -25 -8 0 25 -4 29 -39 34
-71 9 -149 60 -172 112 -5 11 -15 28 -21 38 -11 14 -10 19 2 27 13 8 12 10 -4
10 -15 0 -17 5 -12 30 3 17 1 30 -4 30 -6 0 -6 9 0 24 5 13 6 27 2 31 -4 4 5
6 20 3 15 -3 25 -1 22 3 -3 5 -11 9 -19 9 -8 0 -11 7 -8 20 3 11 9 17 14 14 5
-3 6 -10 3 -16 -4 -7 -2 -8 4 -4 8 5 9 13 3 24 -11 22 -3 42 15 42 9 0 13 4
10 9 -6 9 22 26 37 22 5 -1 6 3 3 8 -8 13 81 54 104 48 11 -3 20 -1 20 5 0 5
5 6 10 3 6 -4 10 7 10 25 0 22 4 29 13 24 9 -6 9 -4 0 7 -7 7 -13 17 -13 22 0
4 6 5 13 1 10 -6 10 -4 0 7 -20 20 -16 77 5 82 16 4 16 5 0 6 -20 1 -26 45 -8
56 5 3 10 12 10 18 0 8 -3 7 -9 -2 -6 -9 -9 1 -9 28 -1 40 16 53 26 21 3 -8 0
-10 -8 -5 -9 5 -11 4 -6 -4 10 -15 29 -3 22 15 -3 8 1 14 9 14 7 0 16 -8 18
-17 4 -17 5 -17 6 0 1 18 51 26 51 7 0 -5 8 -10 18 -10 14 0 14 2 3 9 -9 6 17
9 72 9 l87 -1 11 -41 c36 -134 129 -209 259 -208 25 0 56 4 70 10 14 5 29 10
33 10 4 1 14 7 22 14 42 38 45 39 66 27 24 -12 50 3 28 16 -8 5 -10 4 -5 -3 8
-14 -3 -15 -23 -3 -17 11 -5 32 16 29 9 -2 17 3 19 10 1 7 0 8 -3 2 -2 -5 -8
-8 -13 -5 -12 8 23 75 40 75 9 0 11 3 5 8 -6 4 -12 21 -14 37 -1 17 1 26 6 22
4 -5 8 -14 8 -19 0 -6 7 -13 15 -15 9 -3 11 -1 5 4 -26 21 -13 32 40 31 40 -1
55 -6 58 -17 4 -13 5 -13 6 2 1 20 51 25 51 5 0 -9 4 -8 10 2 6 10 10 11 10 3
0 -7 5 -13 11 -13 5 0 7 5 4 10 -10 16 11 12 25 -5 10 -12 9 -15 -5 -15 -10 0
-16 -3 -12 -6 3 -4 14 -4 23 0 13 5 14 9 5 20 -10 12 -6 14 21 13 27 -2 32 -6
30 -22 -5 -27 7 -14 13 13 2 12 0 24 -6 27 -15 10 -10 25 9 25 14 0 14 2 3 9
-16 10 -23 51 -10 51 5 0 5 10 0 23 -9 23 -8 40 4 77 5 16 4 20 -4 16 -14 -9
-10 16 4 27 7 5 7 10 0 15 -12 9 -16 42 -5 42 10 0 7 26 -3 36 -12 13 -7 24
11 24 14 0 14 2 3 9 -16 10 -23 51 -10 51 5 0 5 10 0 23 -5 12 -9 24 -11 27
-1 3 3 17 9 32 7 19 7 28 -2 32 -7 2 -3 5 8 5 16 1 17 3 6 10 -16 10 -23 51
-9 51 4 0 8 5 8 11 0 5 -5 7 -10 4 -14 -9 -12 8 3 24 9 11 9 13 0 7 -9 -5 -13
0 -14 13 -1 12 -2 24 -4 29 -1 4 -5 21 -10 37 -4 17 -10 35 -14 40 -3 6 -6 12
-6 15 0 3 -17 33 -38 68 -83 134 -223 237 -364 267 -99 21 -1300 20 -1387 -1z"/>
<path d="M2297 1863 c-10 -9 -9 -33 1 -33 4 0 8 9 8 20 0 23 0 22 -9 13z"/>
<path d="M2294 1739 c-3 -6 -2 -15 3 -20 5 -5 9 -1 9 11 0 23 -2 24 -12 9z"/>
<path d="M2297 1543 c-10 -9 -9 -33 1 -33 4 0 8 9 8 20 0 23 0 22 -9 13z"/>
<path d="M1348 1433 c6 -2 18 -2 25 0 6 3 1 5 -13 5 -14 0 -19 -2 -12 -5z"/>
<path d="M1414 1429 c1 -7 10 -13 19 -15 9 -1 15 2 11 7 -3 5 -9 7 -14 4 -4
-3 -11 0 -13 5 -3 6 -4 5 -3 -1z"/>
<path d="M1230 1420 c0 -5 7 -6 17 -3 12 5 14 3 8 -7 -5 -9 -4 -11 4 -6 6 4 9
12 6 17 -8 12 -35 12 -35 -1z"/>
<path d="M1310 1420 c0 -5 5 -10 10 -10 6 0 10 5 10 10 0 6 -4 10 -10 10 -5 0
-10 -4 -10 -10z"/>
<path d="M1390 1421 c0 -6 4 -13 10 -16 6 -3 7 1 4 9 -7 18 -14 21 -14 7z"/>
<path d="M2015 1421 c-3 -5 0 -13 6 -17 8 -5 9 -3 4 6 -6 10 -4 12 8 7 10 -3
17 -2 17 3 0 13 -27 13 -35 1z"/>
<path d="M2110 1420 c0 -5 7 -6 17 -3 12 5 14 3 8 -7 -5 -9 -4 -11 4 -6 6 4 9
12 6 17 -8 12 -35 12 -35 -1z"/>
<path d="M2295 1419 c-4 -6 -5 -12 -2 -15 2 -3 7 2 10 11 7 17 1 20 -8 4z"/>
<path d="M2238 1403 c7 -3 16 -2 19 1 4 3 -2 6 -13 5 -11 0 -14 -3 -6 -6z"/>
<path d="M1970 1355 c0 -8 2 -15 4 -15 2 0 6 7 10 15 3 8 1 15 -4 15 -6 0 -10
-7 -10 -15z"/>
<path d="M1950 1344 c0 -5 7 -18 15 -28 8 -11 15 -16 15 -10 0 5 -7 18 -15 28
-8 11 -15 16 -15 10z"/>
<path d="M2405 1320 c3 -5 8 -10 11 -10 2 0 4 5 4 10 0 6 -5 10 -11 10 -5 0
-7 -4 -4 -10z"/>
<path d="M1880 1240 c-8 -5 -10 -10 -5 -10 6 0 17 5 25 10 8 5 11 10 5 10 -5
0 -17 -5 -25 -10z"/>
<path d="M1886 1203 c-6 -14 -5 -15 5 -6 7 7 10 15 7 18 -3 3 -9 -2 -12 -12z"/>
<path d="M1590 1206 c0 -2 7 -7 16 -10 8 -3 12 -2 9 4 -6 10 -25 14 -25 6z"/>
<path d="M1828 1203 c6 -2 18 -2 25 0 6 3 1 5 -13 5 -14 0 -19 -2 -12 -5z"/>
<path d="M1660 1181 c0 -5 8 -8 18 -7 9 2 21 -2 25 -8 6 -7 7 -6 5 3 -4 16
-48 26 -48 12z"/>
<path d="M1733 1177 c-3 -5 0 -14 6 -20 9 -9 10 -7 5 7 -5 13 -4 17 4 12 6 -3
13 -3 16 2 3 5 -2 9 -10 9 -8 0 -17 -4 -21 -10z"/>
<path d="M1815 1180 c3 -5 8 -10 11 -10 2 0 4 5 4 10 0 6 -5 10 -11 10 -5 0
-7 -4 -4 -10z"/>
<path d="M1611 1164 c0 -11 3 -14 6 -6 3 7 2 16 -1 19 -3 4 -6 -2 -5 -13z"/>
<path d="M1165 1160 c3 -5 8 -10 11 -10 2 0 4 5 4 10 0 6 -5 10 -11 10 -5 0
-7 -4 -4 -10z"/>
<path d="M1765 1160 c-3 -6 1 -7 9 -4 18 7 21 14 7 14 -6 0 -13 -4 -16 -10z"/>
<path d="M1078 1113 c7 -3 16 -2 19 1 4 3 -2 6 -13 5 -11 0 -14 -3 -6 -6z"/>
<path d="M1148 1113 c7 -3 16 -2 19 1 4 3 -2 6 -13 5 -11 0 -14 -3 -6 -6z"/>
<path d="M1110 1100 c0 -5 5 -10 10 -10 6 0 10 5 10 10 0 6 -4 10 -10 10 -5 0
-10 -4 -10 -10z"/>
<path d="M1057 1093 c-10 -9 -9 -23 1 -23 5 0 9 7 9 15 0 17 -1 18 -10 8z"/>
<path d="M1080 1086 c0 -2 7 -7 16 -10 8 -3 12 -2 9 4 -6 10 -25 14 -25 6z"/>
<path d="M1015 1061 c-3 -5 0 -13 6 -17 8 -5 9 -3 4 6 -6 10 -4 12 9 7 10 -4
15 -3 11 3 -8 13 -22 13 -30 1z"/>
<path d="M990 1045 c0 -8 4 -15 10 -15 5 0 7 7 4 15 -4 8 -8 15 -10 15 -2 0
-4 -7 -4 -15z"/>
<path d="M950 1018 c0 -6 7 -7 16 -4 12 5 14 1 9 -17 -5 -20 -5 -20 5 -4 7 10
9 21 6 25 -11 10 -36 11 -36 0z"/>
<path d="M914 919 c-3 -6 -2 -15 4 -21 6 -6 12 -6 17 3 5 8 4 10 -3 5 -7 -4
-12 -3 -12 3 0 5 6 12 13 14 9 4 9 6 0 6 -6 1 -15 -4 -19 -10z"/>
<path d="M2515 900 c3 -5 8 -10 11 -10 2 0 4 5 4 10 0 6 -5 10 -11 10 -5 0 -7
-4 -4 -10z"/>
<path d="M915 859 c-4 -6 -5 -12 -2 -15 2 -3 7 2 10 11 7 17 1 20 -8 4z"/>
<path d="M2550 699 c0 -5 5 -7 10 -4 6 3 10 8 10 11 0 2 -4 4 -10 4 -5 0 -10
-5 -10 -11z"/>
<path d="M2555 669 c-4 -6 -5 -12 -2 -15 2 -3 7 2 10 11 7 17 1 20 -8 4z"/>
<path d="M2540 611 c0 -6 4 -13 10 -16 6 -3 7 1 4 9 -7 18 -14 21 -14 7z"/>
<path d="M2534 582 c3 -5 0 -13 -6 -15 -9 -4 -10 -6 -1 -6 17 -1 25 16 12 25
-7 4 -9 3 -5 -4z"/>
<path d="M2520 540 c-8 -5 -10 -10 -5 -10 6 0 17 5 25 10 8 5 11 10 5 10 -5 0
-17 -5 -25 -10z"/>
<path d="M2495 460 c-3 -6 1 -7 9 -4 18 7 21 14 7 14 -6 0 -13 -4 -16 -10z"/>
<path d="M2475 430 c3 -5 8 -10 11 -10 2 0 4 5 4 10 0 6 -5 10 -11 10 -5 0 -7
-4 -4 -10z"/>
<path d="M2430 381 c0 -6 4 -13 10 -16 6 -3 7 1 4 9 -7 18 -14 21 -14 7z"/>
<path d="M438 303 c7 -3 16 -2 19 1 4 3 -2 6 -13 5 -11 0 -14 -3 -6 -6z"/>
<path d="M636 295 c-9 -26 -7 -32 5 -12 6 10 9 21 6 23 -2 3 -7 -2 -11 -11z"/>
<path d="M695 300 c-3 -6 1 -7 9 -4 18 7 21 14 7 14 -6 0 -13 -4 -16 -10z"/>
<path d="M990 301 c0 -6 4 -13 10 -16 6 -3 7 1 4 9 -7 18 -14 21 -14 7z"/>
<path d="M1090 290 c-6 -11 -8 -20 -6 -20 3 0 10 9 16 20 6 11 8 20 6 20 -3 0
-10 -9 -16 -20z"/>
<path d="M1150 300 c0 -5 5 -10 10 -10 6 0 10 5 10 10 0 6 -4 10 -10 10 -5 0
-10 -4 -10 -10z"/>
<path d="M795 290 c-3 -5 -1 -10 4 -10 6 0 11 5 11 10 0 6 -2 10 -4 10 -3 0
-8 -4 -11 -10z"/>
<path d="M948 288 c5 -5 16 -8 23 -6 8 3 3 7 -10 11 -17 4 -21 3 -13 -5z"/>
<path d="M660 286 c0 -2 7 -7 16 -10 8 -3 12 -2 9 4 -6 10 -25 14 -25 6z"/>
<path d="M710 286 c0 -2 7 -7 16 -10 8 -3 12 -2 9 4 -6 10 -25 14 -25 6z"/>
<path d="M875 280 c3 -5 8 -10 11 -10 2 0 4 5 4 10 0 6 -5 10 -11 10 -5 0 -7
-4 -4 -10z"/>
<path d="M1118 283 c7 -3 16 -2 19 1 4 3 -2 6 -13 5 -11 0 -14 -3 -6 -6z"/>
<path d="M2326 262 c-3 -5 1 -9 9 -9 8 0 12 4 9 9 -3 4 -7 8 -9 8 -2 0 -6 -4
-9 -8z"/>
<path d="M1675 40 c-3 -6 1 -7 9 -4 18 7 21 14 7 14 -6 0 -13 -4 -16 -10z"/>
</g>
</svg>
